<mxfile host="app.diagrams.net" modified="2024-02-13T19:31:52.496Z" agent="Mozilla/5.0 (Macintosh; Intel Mac OS X 10_15_7) AppleWebKit/537.36 (KHTML, like Gecko) Chrome/121.0.0.0 Safari/537.36" etag="xqjlsW4WOGLCr-yKRuRh" version="23.1.4" type="google">
  <diagram id="C5RBs43oDa-KdzZeNtuy" name="Page-1">
    <mxGraphModel grid="1" page="1" gridSize="10" guides="1" tooltips="1" connect="1" arrows="1" fold="1" pageScale="1" pageWidth="827" pageHeight="1169" math="0" shadow="0">
      <root>
        <mxCell id="WIyWlLk6GJQsqaUBKTNV-0" />
        <mxCell id="WIyWlLk6GJQsqaUBKTNV-1" parent="WIyWlLk6GJQsqaUBKTNV-0" />
        <mxCell id="YGc-wEN7cGzX1aykjXhv-2" style="edgeStyle=orthogonalEdgeStyle;rounded=0;orthogonalLoop=1;jettySize=auto;html=1;entryX=0.5;entryY=0;entryDx=0;entryDy=0;" edge="1" parent="WIyWlLk6GJQsqaUBKTNV-1" source="WIyWlLk6GJQsqaUBKTNV-3" target="WIyWlLk6GJQsqaUBKTNV-7">
          <mxGeometry relative="1" as="geometry" />
        </mxCell>
        <mxCell id="WIyWlLk6GJQsqaUBKTNV-3" value="Main Code" style="rounded=1;whiteSpace=wrap;html=1;fontSize=12;glass=0;strokeWidth=1;shadow=0;" vertex="1" parent="WIyWlLk6GJQsqaUBKTNV-1">
          <mxGeometry x="158" y="130" width="120" height="40" as="geometry" />
        </mxCell>
        <mxCell id="WIyWlLk6GJQsqaUBKTNV-7" value="File Loader" style="rounded=1;whiteSpace=wrap;html=1;fontSize=12;glass=0;strokeWidth=1;shadow=0;" vertex="1" parent="WIyWlLk6GJQsqaUBKTNV-1">
          <mxGeometry x="158" y="200" width="120" height="40" as="geometry" />
        </mxCell>
        <mxCell id="YGc-wEN7cGzX1aykjXhv-4" value="Output File .cscn" style="rounded=0;whiteSpace=wrap;html=1;" vertex="1" parent="WIyWlLk6GJQsqaUBKTNV-1">
          <mxGeometry x="158" y="730" width="120" height="60" as="geometry" />
        </mxCell>
        <mxCell id="YGc-wEN7cGzX1aykjXhv-12" value="" style="edgeStyle=orthogonalEdgeStyle;rounded=0;orthogonalLoop=1;jettySize=auto;html=1;exitX=0.5;exitY=0;exitDx=0;exitDy=0;endArrow=none;endFill=0;startArrow=classic;startFill=1;" edge="1" parent="WIyWlLk6GJQsqaUBKTNV-1" source="YGc-wEN7cGzX1aykjXhv-17" target="WIyWlLk6GJQsqaUBKTNV-7">
          <mxGeometry relative="1" as="geometry" />
        </mxCell>
        <mxCell id="YGc-wEN7cGzX1aykjXhv-8" value="Tokenize function" style="swimlane;fontStyle=0;childLayout=stackLayout;horizontal=1;startSize=30;horizontalStack=0;resizeParent=1;resizeParentMax=0;resizeLast=0;collapsible=1;marginBottom=0;whiteSpace=wrap;html=1;" vertex="1" parent="WIyWlLk6GJQsqaUBKTNV-1">
          <mxGeometry x="123" y="500" width="190" height="180" as="geometry" />
        </mxCell>
        <mxCell id="YGc-wEN7cGzX1aykjXhv-9" value="Param: FILE pointer" style="text;strokeColor=none;fillColor=none;align=left;verticalAlign=middle;spacingLeft=4;spacingRight=4;overflow=hidden;points=[[0,0.5],[1,0.5]];portConstraint=eastwest;rotatable=0;whiteSpace=wrap;html=1;" vertex="1" parent="YGc-wEN7cGzX1aykjXhv-8">
          <mxGeometry y="30" width="190" height="30" as="geometry" />
        </mxCell>
        <mxCell id="YGc-wEN7cGzX1aykjXhv-10" value="Main: Creates a list calling the automata function for it to classify all tokens" style="text;strokeColor=none;fillColor=none;align=left;verticalAlign=middle;spacingLeft=4;spacingRight=4;overflow=hidden;points=[[0,0.5],[1,0.5]];portConstraint=eastwest;rotatable=0;whiteSpace=wrap;html=1;" vertex="1" parent="YGc-wEN7cGzX1aykjXhv-8">
          <mxGeometry y="60" width="190" height="60" as="geometry" />
        </mxCell>
        <mxCell id="YGc-wEN7cGzX1aykjXhv-11" value="Output:&amp;nbsp;New file with each word substituted with the new syntax &amp;lt;lexeme, category&amp;gt;" style="text;strokeColor=none;fillColor=none;align=left;verticalAlign=middle;spacingLeft=4;spacingRight=4;overflow=hidden;points=[[0,0.5],[1,0.5]];portConstraint=eastwest;rotatable=0;whiteSpace=wrap;html=1;" vertex="1" parent="YGc-wEN7cGzX1aykjXhv-8">
          <mxGeometry y="120" width="190" height="60" as="geometry" />
        </mxCell>
        <mxCell id="YGc-wEN7cGzX1aykjXhv-13" value="Automata function" style="swimlane;fontStyle=0;childLayout=stackLayout;horizontal=1;startSize=30;horizontalStack=0;resizeParent=1;resizeParentMax=0;resizeLast=0;collapsible=1;marginBottom=0;whiteSpace=wrap;html=1;" vertex="1" parent="WIyWlLk6GJQsqaUBKTNV-1">
          <mxGeometry x="468" y="515" width="180" height="150" as="geometry" />
        </mxCell>
        <mxCell id="YGc-wEN7cGzX1aykjXhv-14" value="Param: token" style="text;strokeColor=none;fillColor=none;align=left;verticalAlign=middle;spacingLeft=4;spacingRight=4;overflow=hidden;points=[[0,0.5],[1,0.5]];portConstraint=eastwest;rotatable=0;whiteSpace=wrap;html=1;" vertex="1" parent="YGc-wEN7cGzX1aykjXhv-13">
          <mxGeometry y="30" width="180" height="30" as="geometry" />
        </mxCell>
        <mxCell id="YGc-wEN7cGzX1aykjXhv-15" value="Main: Classifies the received token into its category and return that category to the tokenize again" style="text;strokeColor=none;fillColor=none;align=left;verticalAlign=middle;spacingLeft=4;spacingRight=4;overflow=hidden;points=[[0,0.5],[1,0.5]];portConstraint=eastwest;rotatable=0;whiteSpace=wrap;html=1;" vertex="1" parent="YGc-wEN7cGzX1aykjXhv-13">
          <mxGeometry y="60" width="180" height="60" as="geometry" />
        </mxCell>
        <mxCell id="YGc-wEN7cGzX1aykjXhv-16" value="Output: List [lexeme, category]" style="text;strokeColor=none;fillColor=none;align=left;verticalAlign=middle;spacingLeft=4;spacingRight=4;overflow=hidden;points=[[0,0.5],[1,0.5]];portConstraint=eastwest;rotatable=0;whiteSpace=wrap;html=1;" vertex="1" parent="YGc-wEN7cGzX1aykjXhv-13">
          <mxGeometry y="120" width="180" height="30" as="geometry" />
        </mxCell>
        <mxCell id="YGc-wEN7cGzX1aykjXhv-21" style="edgeStyle=orthogonalEdgeStyle;rounded=0;orthogonalLoop=1;jettySize=auto;html=1;entryX=0;entryY=0.5;entryDx=0;entryDy=0;" edge="1" parent="WIyWlLk6GJQsqaUBKTNV-1" source="YGc-wEN7cGzX1aykjXhv-17" target="YGc-wEN7cGzX1aykjXhv-20">
          <mxGeometry relative="1" as="geometry" />
        </mxCell>
        <mxCell id="YGc-wEN7cGzX1aykjXhv-24" style="edgeStyle=orthogonalEdgeStyle;rounded=0;orthogonalLoop=1;jettySize=auto;html=1;entryX=0.5;entryY=0;entryDx=0;entryDy=0;" edge="1" parent="WIyWlLk6GJQsqaUBKTNV-1" source="YGc-wEN7cGzX1aykjXhv-17" target="YGc-wEN7cGzX1aykjXhv-8">
          <mxGeometry relative="1" as="geometry" />
        </mxCell>
        <mxCell id="YGc-wEN7cGzX1aykjXhv-17" value="Arguments" style="rhombus;whiteSpace=wrap;html=1;" vertex="1" parent="WIyWlLk6GJQsqaUBKTNV-1">
          <mxGeometry x="178" y="270" width="80" height="60" as="geometry" />
        </mxCell>
        <mxCell id="YGc-wEN7cGzX1aykjXhv-35" style="edgeStyle=orthogonalEdgeStyle;rounded=0;orthogonalLoop=1;jettySize=auto;html=1;entryX=0.5;entryY=0;entryDx=0;entryDy=0;" edge="1" parent="WIyWlLk6GJQsqaUBKTNV-1" source="YGc-wEN7cGzX1aykjXhv-20" target="YGc-wEN7cGzX1aykjXhv-27">
          <mxGeometry relative="1" as="geometry" />
        </mxCell>
        <mxCell id="YGc-wEN7cGzX1aykjXhv-20" value="-debug" style="rounded=1;whiteSpace=wrap;html=1;" vertex="1" parent="WIyWlLk6GJQsqaUBKTNV-1">
          <mxGeometry x="504" y="285" width="50" height="30" as="geometry" />
        </mxCell>
        <mxCell id="YGc-wEN7cGzX1aykjXhv-37" style="edgeStyle=orthogonalEdgeStyle;rounded=0;orthogonalLoop=1;jettySize=auto;html=1;entryX=0.75;entryY=0;entryDx=0;entryDy=0;" edge="1" parent="WIyWlLk6GJQsqaUBKTNV-1" source="YGc-wEN7cGzX1aykjXhv-38" target="YGc-wEN7cGzX1aykjXhv-8">
          <mxGeometry relative="1" as="geometry" />
        </mxCell>
        <mxCell id="YGc-wEN7cGzX1aykjXhv-47" style="edgeStyle=orthogonalEdgeStyle;rounded=0;orthogonalLoop=1;jettySize=auto;html=1;entryX=0.5;entryY=0;entryDx=0;entryDy=0;" edge="1" parent="WIyWlLk6GJQsqaUBKTNV-1" source="YGc-wEN7cGzX1aykjXhv-27" target="YGc-wEN7cGzX1aykjXhv-42">
          <mxGeometry relative="1" as="geometry" />
        </mxCell>
        <mxCell id="YGc-wEN7cGzX1aykjXhv-27" value="Error Messages" style="rounded=1;whiteSpace=wrap;html=1;" vertex="1" parent="WIyWlLk6GJQsqaUBKTNV-1">
          <mxGeometry x="469" y="330" width="120" height="60" as="geometry" />
        </mxCell>
        <mxCell id="YGc-wEN7cGzX1aykjXhv-39" value="" style="edgeStyle=orthogonalEdgeStyle;rounded=0;orthogonalLoop=1;jettySize=auto;html=1;entryX=1;entryY=0.5;entryDx=0;entryDy=0;" edge="1" parent="WIyWlLk6GJQsqaUBKTNV-1" source="YGc-wEN7cGzX1aykjXhv-27" target="YGc-wEN7cGzX1aykjXhv-38">
          <mxGeometry relative="1" as="geometry">
            <mxPoint x="469" y="395" as="sourcePoint" />
            <mxPoint x="257" y="605" as="targetPoint" />
          </mxGeometry>
        </mxCell>
        <mxCell id="YGc-wEN7cGzX1aykjXhv-38" value="DEBUG ON" style="ellipse;whiteSpace=wrap;html=1;aspect=fixed;" vertex="1" parent="WIyWlLk6GJQsqaUBKTNV-1">
          <mxGeometry x="358" y="335" width="50" height="50" as="geometry" />
        </mxCell>
        <mxCell id="YGc-wEN7cGzX1aykjXhv-48" style="edgeStyle=orthogonalEdgeStyle;rounded=0;orthogonalLoop=1;jettySize=auto;html=1;entryX=0.75;entryY=0;entryDx=0;entryDy=0;" edge="1" parent="WIyWlLk6GJQsqaUBKTNV-1" source="YGc-wEN7cGzX1aykjXhv-40" target="YGc-wEN7cGzX1aykjXhv-8">
          <mxGeometry relative="1" as="geometry" />
        </mxCell>
        <mxCell id="YGc-wEN7cGzX1aykjXhv-40" value="Print Stdout" style="rounded=1;whiteSpace=wrap;html=1;" vertex="1" parent="WIyWlLk6GJQsqaUBKTNV-1">
          <mxGeometry x="323" y="410" width="120" height="60" as="geometry" />
        </mxCell>
        <mxCell id="YGc-wEN7cGzX1aykjXhv-46" style="edgeStyle=orthogonalEdgeStyle;rounded=0;orthogonalLoop=1;jettySize=auto;html=1;entryX=1;entryY=0.5;entryDx=0;entryDy=0;" edge="1" parent="WIyWlLk6GJQsqaUBKTNV-1" source="YGc-wEN7cGzX1aykjXhv-42" target="YGc-wEN7cGzX1aykjXhv-40">
          <mxGeometry relative="1" as="geometry" />
        </mxCell>
        <mxCell id="YGc-wEN7cGzX1aykjXhv-42" value="DEBUG OFF" style="ellipse;whiteSpace=wrap;html=1;aspect=fixed;" vertex="1" parent="WIyWlLk6GJQsqaUBKTNV-1">
          <mxGeometry x="504" y="415" width="50" height="50" as="geometry" />
        </mxCell>
        <mxCell id="YGc-wEN7cGzX1aykjXhv-51" value="COUNTOP" style="rhombus;whiteSpace=wrap;html=1;" vertex="1" parent="WIyWlLk6GJQsqaUBKTNV-1">
          <mxGeometry x="509" y="685" width="80" height="55" as="geometry" />
        </mxCell>
        <mxCell id="7MYHWKY7D_-tPGV_Kh_4-16" value="" style="endArrow=classic;html=1;rounded=0;entryX=0.5;entryY=0;entryDx=0;entryDy=0;" edge="1" parent="WIyWlLk6GJQsqaUBKTNV-1" source="YGc-wEN7cGzX1aykjXhv-11" target="YGc-wEN7cGzX1aykjXhv-4">
          <mxGeometry width="50" height="50" relative="1" as="geometry">
            <mxPoint x="362" y="680" as="sourcePoint" />
            <mxPoint x="412" y="630" as="targetPoint" />
          </mxGeometry>
        </mxCell>
        <mxCell id="7MYHWKY7D_-tPGV_Kh_4-19" value="" style="curved=1;endArrow=classic;html=1;rounded=0;entryX=0;entryY=0.5;entryDx=0;entryDy=0;" edge="1" parent="WIyWlLk6GJQsqaUBKTNV-1" target="YGc-wEN7cGzX1aykjXhv-14">
          <mxGeometry width="50" height="50" relative="1" as="geometry">
            <mxPoint x="313" y="560" as="sourcePoint" />
            <mxPoint x="423" y="560" as="targetPoint" />
            <Array as="points">
              <mxPoint x="323" y="540" />
              <mxPoint x="348" y="520" />
              <mxPoint x="358" y="520" />
              <mxPoint x="398" y="520" />
              <mxPoint x="428" y="530" />
            </Array>
          </mxGeometry>
        </mxCell>
        <mxCell id="7MYHWKY7D_-tPGV_Kh_4-21" value="" style="curved=1;endArrow=classic;html=1;rounded=0;entryX=1.001;entryY=0.415;entryDx=0;entryDy=0;entryPerimeter=0;exitX=-0.008;exitY=0.059;exitDx=0;exitDy=0;exitPerimeter=0;" edge="1" parent="WIyWlLk6GJQsqaUBKTNV-1" source="YGc-wEN7cGzX1aykjXhv-16">
          <mxGeometry width="50" height="50" relative="1" as="geometry">
            <mxPoint x="443.17" y="630" as="sourcePoint" />
            <mxPoint x="312.99999999999994" y="634.0500000000001" as="targetPoint" />
            <Array as="points">
              <mxPoint x="438" y="660" />
              <mxPoint x="418" y="670" />
              <mxPoint x="387.81" y="669.15" />
              <mxPoint x="347.81" y="659.15" />
            </Array>
          </mxGeometry>
        </mxCell>
        <mxCell id="7MYHWKY7D_-tPGV_Kh_4-22" value="" style="endArrow=classic;html=1;rounded=0;entryX=0.5;entryY=0;entryDx=0;entryDy=0;exitX=0.452;exitY=1.035;exitDx=0;exitDy=0;exitPerimeter=0;" edge="1" parent="WIyWlLk6GJQsqaUBKTNV-1" source="YGc-wEN7cGzX1aykjXhv-16" target="YGc-wEN7cGzX1aykjXhv-51">
          <mxGeometry width="50" height="50" relative="1" as="geometry">
            <mxPoint x="488" y="700" as="sourcePoint" />
            <mxPoint x="538" y="650" as="targetPoint" />
          </mxGeometry>
        </mxCell>
        <mxCell id="7MYHWKY7D_-tPGV_Kh_4-24" value="Tokenize keeps calling the automata until all tokens are processed and have a category" style="text;html=1;strokeColor=none;fillColor=none;align=center;verticalAlign=middle;whiteSpace=wrap;rounded=0;" vertex="1" parent="WIyWlLk6GJQsqaUBKTNV-1">
          <mxGeometry x="327" y="550" width="120" height="80" as="geometry" />
        </mxCell>
        <mxCell id="7MYHWKY7D_-tPGV_Kh_4-25" style="edgeStyle=orthogonalEdgeStyle;rounded=0;orthogonalLoop=1;jettySize=auto;html=1;exitX=0;exitY=0.5;exitDx=0;exitDy=0;entryX=0.605;entryY=1;entryDx=0;entryDy=0;entryPerimeter=0;" edge="1" parent="WIyWlLk6GJQsqaUBKTNV-1" source="YGc-wEN7cGzX1aykjXhv-51" target="YGc-wEN7cGzX1aykjXhv-11">
          <mxGeometry relative="1" as="geometry" />
        </mxCell>
      </root>
    </mxGraphModel>
  </diagram>
</mxfile>
